<svg xmlns="http://www.w3.org/2000/svg" width="636.137" height="125.417" viewBox="0 0 636.137 125.417"><path d="M105.4,102.215H81.935l-26.3-37.772-11.679,14.1v23.674h-32.3V7.1h32.3V52.027L79.936,7.1h23.042L68.152,50.344Z" transform="translate(35.485 21.624)" fill="#fff"/><path d="M18.2,45.871A18.2,18.2,0,1,0,0,27.669,18.2,18.2,0,0,0,18.2,45.871Z" transform="translate(0 28.832)" fill="#fff"/><path d="M16.394,50.264A14.625,14.625,0,1,0,1.769,35.639,14.625,14.625,0,0,0,16.394,50.264Z" transform="translate(5.387 64.001)" fill="#0af"/><path d="M53.054,67.494V7.1H72.2V66.126c0,6.313,1.578,11.048,4.735,14.309s7.576,4.84,13.257,4.84c5.471,0,9.785-1.683,13.047-5.05,3.156-3.367,4.735-8.1,4.735-14.1V7.1h19.254V67.389c0,11.89-3.472,20.938-10.521,27.146-6.945,6.208-15.782,9.259-26.514,9.259s-19.57-3.051-26.62-9.259C56.526,88.432,53.054,79.383,53.054,67.494Z" transform="translate(161.587 21.624)" fill="#0af"/><path d="M109.774,102.215V7.1h19.152v95.115Z" transform="translate(334.341 21.624)" fill="#0af"/><path d="M178.553,83.908h-26.3V7.1H133.1v95.115h45.45Z" transform="translate(405.394 21.624)" fill="#0af"/><path d="M189.318,84.434h-23.36V63.075h23.36V45.293h-23.36V24.881h23.36V7.1H146.7v95.115h42.614Z" transform="translate(446.819 21.624)" fill="#0af"/><path d="M119.267,7.1v95.115h19.254v-76.7h27.147V7.1Z" transform="translate(363.254 21.624)" fill="#0af"/><path d="M139.971,7.1h-46.4V25.513h27.146v76.7h19.254V7.1Z" transform="translate(284.995 21.624)" fill="#0af"/><path d="M119.35,19.149a9.575,9.575,0,1,0-9.576-9.575A9.576,9.576,0,0,0,119.35,19.149Z" transform="translate(334.341)" fill="#0af"/><path d="M83.986,52.268c-2.42-1.157-6.313-2.736-11.574-5.05l-9.364-4.1c-5.155-2.525-7.681-5.681-7.681-9.364a7.894,7.894,0,0,1,3.262-6.629c2.21-1.683,5.156-2.525,8.943-2.525a29.324,29.324,0,0,1,11.258,2.42,27.129,27.129,0,0,1,9.575,6.523V11.865A42.828,42.828,0,0,0,67.257,6.71c-9.469,0-17.361,2.63-23.463,8a25.162,25.162,0,0,0-9.049,19.781c0,10,5.05,17.887,15.046,23.674a94.617,94.617,0,0,0,11.153,5.155c5.576,2.1,8.733,3.367,9.364,3.683,5.787,2.63,8.628,6,8.628,9.89a8.606,8.606,0,0,1-3.893,7.365,16.818,16.818,0,0,1-9.469,2.84H38.428l10.837,15.151,1.894,2.631H65.153c10.416,0,18.834-2.736,25.252-8.1a25.94,25.94,0,0,0,9.68-20.833Q100.242,60.16,83.986,52.268Z" transform="translate(105.824 20.436)" fill="#0af"/><path d="M143.295,58.866a20.9,20.9,0,0,0-9.68-7.576l5.681-8.733a20.939,20.939,0,0,0,3.578-11.784c0-6.208-2.42-11.784-7.155-16.624C130.984,9.415,124.356,7.1,115.938,7.1H74.483v95.115h43.349c9.048,0,16.414-2.63,21.885-8a26.123,26.123,0,0,0,8.207-19.675A27.013,27.013,0,0,0,143.295,58.866ZM114.15,85.486H93.317V23.724h19.465c4,0,7.05,1.263,9.154,3.893a7.561,7.561,0,0,1,1.263,2.209,15.809,15.809,0,0,1,.947,9.154,13.489,13.489,0,0,1-1.789,4.419,75.757,75.757,0,0,1-6.1,8.627s6.418,2.1,9.575,7.47a20.531,20.531,0,0,1,1.578,18.413,11.623,11.623,0,0,1-2.841,4A15.245,15.245,0,0,1,114.15,85.486Z" transform="translate(226.856 21.624)" fill="#0af"/></svg>